{
    "asset" : {
        "generator" : "Khronos glTF Blender I/O v1.4.40",
        "version" : "2.0"
    },
    "scene" : 0,
    "scenes" : [
        {
            "name" : "Scene",
            "nodes" : [
                0
            ]
        }
    ],
    "nodes" : [
        {
            "mesh" : 0,
            "name" : "horsehead"
        }
    ],
    "meshes" : [
        {
            "name" : "horsehead",
            "primitives" : [
                {
                    "attributes" : {
                        "POSITION" : 0,
                        "NORMAL" : 1,
                        "TEXCOORD_0" : 2
                    },
                    "indices" : 3
                }
            ]
        }
    ],
    "accessors" : [
        {
            "bufferView" : 0,
            "componentType" : 5126,
            "count" : 7998,
            "max" : [
                0.435788094997406,
                1.1453689336776733,
                1.4322566986083984
            ],
            "min" : [
                -0.43471547961235046,
                -0.9749064445495605,
                -1.5304957628250122
            ],
            "type" : "VEC3"
        },
        {
            "bufferView" : 1,
            "componentType" : 5126,
            "count" : 7998,
            "type" : "VEC3"
        },
        {
            "bufferView" : 2,
            "componentType" : 5126,
            "count" : 7998,
            "type" : "VEC2"
        },
        {
            "bufferView" : 3,
            "componentType" : 5123,
            "count" : 7998,
            "type" : "SCALAR"
        }
    ],
    "bufferViews" : [
        {
            "buffer" : 0,
            "byteLength" : 95976,
            "byteOffset" : 0
        },
        {
            "buffer" : 0,
            "byteLength" : 95976,
            "byteOffset" : 95976
        },
        {
            "buffer" : 0,
            "byteLength" : 63984,
            "byteOffset" : 191952
        },
        {
            "buffer" : 0,
            "byteLength" : 15996,
            "byteOffset" : 255936
        }
    ],
    "buffers" : [
        {
            "byteLength" : 271932,
            "uri" : "data:application/octet-stream;base64,"
        }
    ]
}
